# xmcd CD database file
#
# Track frame offsets:
#	150
#	3737
#	20462
#	30974
#	43113
#	57662
#	73337
#	84137
#	103487
#	119238
#	132257
#	146763
#	157412
#
# Disc length: 2220 seconds
#
# Revision: 1
# Processed by: cddbd v1.5.1PL2 Copyright (c) Steve Scherf et al.
# Submitted via: CDex 1.51
#
DISCID=c608aa0d
DTITLE=ªL¤@®p - Camping
DYEAR=2006
DGENRE=Folk
TTITLE0=(Prologue) You Can't Hurry Love
TTITLE1=Dancing Queen
TTITLE2=I Don't Want to Say Goodbye
TTITLE3=The Boy from Ipanema
TTITLE4=When He Sings
TTITLE5=Crazy for You
TTITLE6=Let's Go Camping
TTITLE7=A Waltz for a Night
TTITLE8=Rent
TTITLE9=You've Got to Learn
TTITLE10=Cool
TTITLE11=Eternal Flame
TTITLE12=(Epilogue) Happy Ending
EXTD=YEAR: 2006
EXTT0=
EXTT1=
EXTT2=
EXTT3=
EXTT4=
EXTT5=
EXTT6=
EXTT7=
EXTT8=
EXTT9=
EXTT10=
EXTT11=
EXTT12=
PLAYORDER=
